<svg width="24" height="24" viewBox="0 0 24 24" fill="none" xmlns="http://www.w3.org/2000/svg">
<mask id="path-1-outside-1_26_2" maskUnits="userSpaceOnUse" x="-2.62268e-07" y="9.5" width="24" height="5" fill="black">
<rect fill="white" x="-2.62268e-07" y="9.5" width="24" height="5"/>
<path d="M2 13.0482C1.3 13.0482 0.95 12.6982 0.95 11.9982C0.95 11.2982 1.3 10.9482 2 10.9482L21.85 10.9482C22.55 10.9482 22.9 11.2982 22.9 11.9982C22.9 12.6982 22.55 13.0482 21.85 13.0482L2 13.0482Z"/>
</mask>
<path d="M2 13.0482C1.3 13.0482 0.95 12.6982 0.95 11.9982C0.95 11.2982 1.3 10.9482 2 10.9482L21.85 10.9482C22.55 10.9482 22.9 11.2982 22.9 11.9982C22.9 12.6982 22.55 13.0482 21.85 13.0482L2 13.0482Z" fill="white"/>
<path d="M2 12.5482C1.72707 12.5482 1.61421 12.4803 1.56605 12.4322C1.51789 12.384 1.45 12.2712 1.45 11.9982L0.45 11.9982C0.45 12.4253 0.557107 12.8375 0.858946 13.1393C1.16079 13.4411 1.57293 13.5482 2 13.5482L2 12.5482ZM1.45 11.9982C1.45 11.7253 1.51789 11.6125 1.56605 11.5643C1.61421 11.5161 1.72707 11.4482 2 11.4482L2 10.4482C1.57293 10.4482 1.16079 10.5553 0.858946 10.8572C0.557107 11.159 0.45 11.5712 0.45 11.9982L1.45 11.9982ZM2 11.4482L21.85 11.4482L21.85 10.4482L2 10.4482L2 11.4482ZM21.85 11.4482C22.1229 11.4482 22.2358 11.5161 22.2839 11.5643C22.3321 11.6125 22.4 11.7253 22.4 11.9982L23.4 11.9982C23.4 11.5712 23.2929 11.159 22.9911 10.8572C22.6892 10.5553 22.2771 10.4482 21.85 10.4482L21.85 11.4482ZM22.4 11.9982C22.4 12.2712 22.3321 12.384 22.2839 12.4322C22.2358 12.4803 22.1229 12.5482 21.85 12.5482L21.85 13.5482C22.2771 13.5482 22.6892 13.4411 22.9911 13.1393C23.2929 12.8375 23.4 12.4253 23.4 11.9982L22.4 11.9982ZM21.85 12.5482L2 12.5482L2 13.5482L21.85 13.5482L21.85 12.5482Z" fill="white" mask="url(#path-1-outside-1_26_2)"/>
<mask id="path-4-outside-2_26_2" maskUnits="userSpaceOnUse" x="9.5" y="0" width="5" height="24" fill="black">
<rect fill="white" x="9.5" width="5" height="24"/>
<path d="M13.0482 22C13.0482 22.7 12.6982 23.05 11.9982 23.05C11.2982 23.05 10.9482 22.7 10.9482 22V2.15C10.9482 1.45 11.2982 1.1 11.9982 1.1C12.6982 1.1 13.0482 1.45 13.0482 2.15V22Z"/>
</mask>
<path d="M13.0482 22C13.0482 22.7 12.6982 23.05 11.9982 23.05C11.2982 23.05 10.9482 22.7 10.9482 22V2.15C10.9482 1.45 11.2982 1.1 11.9982 1.1C12.6982 1.1 13.0482 1.45 13.0482 2.15V22Z" fill="white"/>
<path d="M12.5482 22C12.5482 22.2729 12.4803 22.3858 12.4322 22.4339C12.384 22.4821 12.2712 22.55 11.9982 22.55V23.55C12.4253 23.55 12.8375 23.4429 13.1393 23.1411C13.4411 22.8392 13.5482 22.4271 13.5482 22H12.5482ZM11.9982 22.55C11.7253 22.55 11.6125 22.4821 11.5643 22.4339C11.5161 22.3858 11.4482 22.2729 11.4482 22H10.4482C10.4482 22.4271 10.5553 22.8392 10.8572 23.1411C11.159 23.4429 11.5712 23.55 11.9982 23.55V22.55ZM11.4482 22V2.15H10.4482V22H11.4482ZM11.4482 2.15C11.4482 1.87707 11.5161 1.76421 11.5643 1.71605C11.6125 1.66789 11.7253 1.6 11.9982 1.6V0.599999C11.5712 0.599999 11.159 0.707106 10.8572 1.00895C10.5553 1.31079 10.4482 1.72293 10.4482 2.15H11.4482ZM11.9982 1.6C12.2712 1.6 12.384 1.66789 12.4322 1.71605C12.4803 1.76421 12.5482 1.87707 12.5482 2.15H13.5482C13.5482 1.72293 13.4411 1.31079 13.1393 1.00895C12.8375 0.707106 12.4253 0.599999 11.9982 0.599999V1.6ZM12.5482 2.15V22H13.5482V2.15H12.5482Z" fill="white" mask="url(#path-4-outside-2_26_2)"/>
</svg>
